<svg width="984" height="984" viewBox="0 0 984 984" fill="none" xmlns="http://www.w3.org/2000/svg">
<g clip-path="url(#clip0_26_355)">
<circle cx="492" cy="492" r="492" fill="white"/>
<path d="M721.254 258.235C803.404 272.949 858.072 351.473 843.358 433.623C841.28 445.222 837.93 456.273 833.478 466.658L555.764 466.658C544.443 440.385 540.444 410.608 545.866 380.339C560.58 298.189 639.103 243.521 721.254 258.235Z" fill="url(#paint0_linear_26_355)"/>
<path d="M526.137 459.08L559.726 459.08C545.264 453.823 536.235 434.059 546.141 415.974C551.51 406.173 563.823 405.018 575.42 407.357C586.685 409.629 602.33 421.655 605.226 425.8C593.891 400.533 623.698 358.528 647.195 358.528C664.113 358.528 680.019 366.844 687.508 383.688C695.076 400.71 692.988 422.109 692.303 427.48C692.662 425.152 693.606 420.056 695.484 415.974C698.003 410.499 707.973 408.022 715.215 410.218C722.457 412.415 724.156 421.605 723.191 425.8C722.086 430.608 718.069 433.464 717.104 434.091C720.765 431.817 771.384 401.059 791.345 426.133C801.71 439.154 785.322 458.798 762.233 460.482L774.827 460.482C802.534 460.482 817.647 460.653 817.647 463.851C817.647 467.05 817.228 469.595 778.829 469.595C772.716 469.595 624.823 467.638 526.137 467.638C523.784 467.638 520.845 465.371 520.845 463.7C520.845 462.029 522.105 459.08 526.137 459.08Z" fill="#F0F0F0"/>
<path d="M292.624 549.862H433.091L461.092 593.263L215.623 664.663L292.624 549.862Z" fill="#D4F6EB"/>
<path d="M350.148 659.769L455.491 501.329M416.758 501.329L525.492 659.769" stroke="black" stroke-width="30" stroke-linecap="round" stroke-linejoin="round"/>
<path d="M322.957 512.995L297.275 541.504M204.443 659.769L297.275 541.504M297.275 541.504H442.425" stroke="black" stroke-width="30" stroke-linecap="round" stroke-linejoin="round"/>
<path d="M203.509 516.729C176.909 489.196 113.909 501.528 113.909 560.598C113.909 619.669 163.376 627.529 198.843 616.293" stroke="black" stroke-width="25" stroke-linecap="round" stroke-linejoin="round"/>
<path d="M586.165 511.598C569.045 492.475 534.378 505.725 534.378 531.392C534.378 557.059 565.246 558.367 586.165 568.169C598.312 573.861 608.908 580.395 603.42 597.361C597.933 614.327 552.022 623.036 540.702 609.258" stroke="black" stroke-width="25" stroke-linecap="round" stroke-linejoin="round"/>
<path d="M694.402 515.168C677.849 495.552 636.082 505.561 636.082 531.228C636.082 556.895 667.036 558.022 687.869 568.006C699.113 573.395 711.216 578.362 705.124 597.197C699.032 616.033 654.972 624.391 642.406 609.094" stroke="black" stroke-width="25" stroke-linecap="round" stroke-linejoin="round"/>
<path d="M808.601 607.373L755.217 606.964C752.255 606.942 749.962 604.363 750.286 601.418L755.32 555.608M755.32 555.608L758.699 511.543C758.899 508.937 761.072 506.925 763.685 506.925L816.843 506.925M755.32 555.608L800.418 556.649" stroke="#1D1D1D" stroke-width="25" stroke-linecap="round" stroke-linejoin="round"/>
<path d="M668.034 660.608V700.095C668.034 705.618 672.511 710.095 678.034 710.095H693.429" stroke="black" stroke-width="9" stroke-linecap="round"/>
<path d="M715.568 677.538V710.746" stroke="black" stroke-width="9" stroke-linecap="round"/>
<path d="M748.125 710.094C748.125 710.094 748.125 678.187 748.125 659.304C748.125 648.887 757.893 641.724 764.404 648.887M738.358 678.187H757.893" stroke="black" stroke-width="9" stroke-linecap="round"/>
<path d="M781.355 690.491H797.673C803.076 690.491 807.73 686.048 805.93 680.954C804.257 676.216 800.895 672.066 794.651 672.341C781.355 672.927 781.355 686.392 781.355 690.491ZM781.355 690.491C780.777 706.885 792.339 713.91 807.369 708.056" stroke="black" stroke-width="8" stroke-linecap="round"/>
<circle cx="715.568" cy="661.259" r="5.86036" fill="#1A1919"/>
<path d="M223.483 361.074C223.194 361.244 222.966 361.508 222.857 361.829C222.748 362.149 222.766 362.496 222.908 362.797C223.05 363.098 223.306 363.332 223.623 363.451C223.94 363.571 224.289 363.563 224.603 363.448C224.603 363.448 224.603 363.448 224.603 363.448C226.099 362.904 227.619 362.422 229.158 361.979C242.491 358.43 259.444 355.749 267.883 363.954C268.429 364.547 268.91 365.19 269.335 365.899C271.314 369.275 276.02 367.861 275.829 363.952C275.498 352.102 283.031 339.65 295.373 335.173C296.832 334.595 298.311 334.107 299.869 333.688C300.191 333.601 300.482 333.406 300.672 333.126C300.862 332.846 300.937 332.507 300.88 332.179C300.823 331.851 300.637 331.557 300.364 331.358C300.09 331.159 299.751 331.074 299.418 331.102C299.418 331.102 299.418 331.102 299.418 331.102C297.713 331.251 296.053 331.495 294.373 331.864C280.059 334.455 268.434 348.788 268.857 364.305L275.351 362.357C274.691 361.223 273.914 360.169 273.029 359.209C258.483 346.697 241.216 353.283 227.934 358.747C226.416 359.462 224.931 360.23 223.483 361.074Z" fill="black"/>
<path d="M318.928 384.914C318.762 385.009 318.63 385.159 318.566 385.342C318.502 385.525 318.51 385.724 318.591 385.897C318.671 386.07 318.817 386.205 318.998 386.275C319.179 386.344 319.379 386.341 319.559 386.275C319.559 386.275 319.559 386.275 319.559 386.275C320.469 385.946 321.4 385.667 322.344 385.417C330.596 383.452 340.797 382.289 346.509 387.033C346.968 387.47 347.36 387.95 347.687 388.486C348.83 390.4 351.495 389.585 351.385 387.359C351.048 380.038 354.869 372.211 362.352 369.498C363.244 369.143 364.148 368.849 365.104 368.601C365.289 368.553 365.456 368.442 365.565 368.282C365.675 368.122 365.718 367.928 365.686 367.74C365.654 367.552 365.548 367.383 365.392 367.269C365.235 367.155 365.041 367.106 364.851 367.122C364.851 367.122 364.851 367.122 364.851 367.122C363.807 367.217 362.794 367.372 361.766 367.612C353.02 369.242 346.951 378.645 347.406 387.564L351.104 386.437C350.598 385.582 349.974 384.807 349.263 384.133C340.332 377.33 330.047 380.413 321.694 383.552C320.75 383.961 319.827 384.407 318.928 384.914Z" fill="black"/>
<path d="M367.538 338.419C367.417 338.492 367.32 338.606 367.273 338.742C367.227 338.879 367.234 339.026 367.294 339.154C367.354 339.283 367.463 339.382 367.598 339.434C367.733 339.486 367.882 339.483 368.016 339.437C368.016 339.437 368.016 339.437 368.016 339.437C368.544 339.259 369.09 339.12 369.644 339.002C374.502 338.105 380.476 338.063 383.535 340.811C383.763 341.041 383.958 341.288 384.121 341.556C384.97 342.999 386.981 342.392 386.9 340.719C386.708 336.414 388.181 331.627 392.437 329.794C392.94 329.564 393.455 329.375 394.007 329.215C394.143 329.176 394.267 329.093 394.347 328.973C394.428 328.854 394.46 328.709 394.436 328.57C394.412 328.431 394.333 328.306 394.217 328.22C394.101 328.135 393.957 328.098 393.815 328.107C393.815 328.107 393.815 328.107 393.815 328.107C393.189 328.152 392.581 328.241 391.961 328.391C386.519 329.514 383.632 335.711 383.914 340.871L386.693 340.033C386.406 339.541 386.056 339.093 385.665 338.699C380.397 334.4 374.237 335.773 369.195 337.591C368.628 337.83 368.074 338.099 367.538 338.419Z" fill="black"/>
</g>
<defs>
<linearGradient id="paint0_linear_26_355" x1="723.835" y1="292.329" x2="688.426" y2="490.019" gradientUnits="userSpaceOnUse">
<stop stop-color="#ECAE1F"/>
<stop offset="1" stop-color="#FFEA00"/>
</linearGradient>
<clipPath id="clip0_26_355">
<rect width="984" height="984" fill="white"/>
</clipPath>
</defs>
</svg>
