<svg width="1211" height="355" viewBox="0 0 1211 355" fill="none" xmlns="http://www.w3.org/2000/svg">
<path d="M1195.04 265.615C1191.35 265.615 1188.14 264.332 1185.41 261.765C1182.84 259.037 1181.56 255.828 1181.56 252.138V250.694C1181.56 247.003 1182.84 243.875 1185.41 241.307C1188.14 238.58 1191.35 237.216 1195.04 237.216H1197.44C1201.13 237.216 1204.26 238.58 1206.83 241.307C1209.56 243.875 1210.92 247.003 1210.92 250.694V252.138C1210.92 255.828 1209.56 259.037 1206.83 261.765C1204.26 264.332 1201.13 265.615 1197.44 265.615H1195.04Z" fill="#1D93C8"/>
<path d="M1082.92 267.3C1073.29 267.3 1063.98 264.813 1055 259.839C1046.17 254.865 1038.87 247.645 1033.1 238.179C1027.48 228.712 1024.67 217.16 1024.67 203.522C1024.67 189.884 1027.48 178.332 1033.1 168.865C1038.87 159.399 1046.17 152.179 1055 147.205C1063.98 142.231 1073.29 139.744 1082.92 139.744C1091.42 139.744 1099.04 141.349 1105.78 144.558C1112.52 147.767 1118.61 152.259 1124.07 158.035V99.0709C1124.07 95.8619 1125.11 93.2145 1127.2 91.1287C1129.44 89.0429 1132.09 88 1135.14 88C1138.19 88 1140.76 89.0429 1142.84 91.1287C1144.93 93.2145 1145.97 95.8619 1145.97 99.0709V255.266C1145.97 258.315 1144.93 260.882 1142.84 262.968C1140.76 265.054 1138.19 266.097 1135.14 266.097C1132.09 266.097 1129.44 265.054 1127.2 262.968C1125.11 260.882 1124.07 258.315 1124.07 255.266V249.009C1118.61 254.785 1112.52 259.278 1105.78 262.486C1099.04 265.695 1091.42 267.3 1082.92 267.3ZM1086.04 246.843C1093.91 246.843 1101.05 245.158 1107.46 241.789C1113.88 238.259 1119.42 233.927 1124.07 228.793V178.252C1119.42 173.117 1113.88 168.865 1107.46 165.496C1101.05 161.966 1093.91 160.201 1086.04 160.201C1074.65 160.201 1065.19 163.892 1057.64 171.272C1050.26 178.492 1046.57 189.242 1046.57 203.522C1046.57 217.641 1050.26 228.391 1057.64 235.772C1065.19 243.153 1074.65 246.843 1086.04 246.843Z" fill="#1D93C8"/>
<path d="M913.933 266.097C910.884 266.097 908.317 265.054 906.231 262.968C904.145 260.882 903.103 258.315 903.103 255.266V99.0709C903.103 96.0224 904.145 93.4552 906.231 91.3694C908.317 89.1231 910.884 88 913.933 88C916.981 88 919.548 89.1231 921.634 91.3694C923.88 93.4552 925.004 96.0224 925.004 99.0709V197.505L982.283 144.558C983.246 143.755 984.289 143.033 985.412 142.392C986.696 141.75 988.059 141.429 989.503 141.429C993.675 141.429 996.483 142.632 997.927 145.039C999.371 147.285 1000.09 149.612 1000.09 152.018C1000.09 152.981 999.852 154.185 999.371 155.629C998.89 156.912 997.766 158.436 996.002 160.201L961.345 191.248L1004.91 249.009C1006.51 251.095 1007.31 253.261 1007.31 255.507C1007.31 258.716 1006.27 261.283 1004.18 263.208C1002.1 265.134 999.451 266.097 996.242 266.097C992.873 266.097 989.905 264.572 987.337 261.524L945.942 205.207L925.004 224.22V255.266C925.004 258.315 923.88 260.882 921.634 262.968C919.548 265.054 916.981 266.097 913.933 266.097Z" fill="#1D93C8"/>
<path d="M831.574 267.3C820.182 267.3 809.592 264.813 799.805 259.839C790.018 254.705 782.156 247.405 776.219 237.938C770.283 228.311 767.314 216.839 767.314 203.522C767.314 190.045 770.283 178.573 776.219 169.106C782.156 159.64 790.018 152.42 799.805 147.446C809.592 142.312 820.182 139.744 831.574 139.744C841.04 139.744 848.902 141.028 855.159 143.595C861.577 146.002 866.792 148.569 870.803 151.297C874.012 153.382 875.616 156.19 875.616 159.72C875.616 161.966 874.734 164.132 872.969 166.218C871.204 168.304 869.038 169.347 866.471 169.347C864.706 169.347 862.941 168.866 861.176 167.903C857.005 165.657 852.913 163.811 848.902 162.367C844.891 160.923 839.756 160.201 833.499 160.201C819.54 160.201 808.63 164.213 800.768 172.235C793.066 180.257 789.216 190.686 789.216 203.522C789.216 216.358 793.066 226.787 800.768 234.809C808.63 242.832 819.54 246.843 833.499 246.843C839.756 246.843 844.891 246.121 848.902 244.677C852.913 243.072 857.005 241.227 861.176 239.142C862.941 238.179 864.706 237.697 866.471 237.697C869.038 237.697 871.204 238.74 872.969 240.826C874.734 242.912 875.616 245.078 875.616 247.324C875.616 250.854 874.012 253.662 870.803 255.748C866.792 258.315 861.577 260.882 855.159 263.449C848.902 266.016 841.04 267.3 831.574 267.3Z" fill="#1D93C8"/>
<path d="M638.948 266.097C635.9 266.097 633.333 265.054 631.247 262.968C629.161 260.882 628.118 258.315 628.118 255.266V99.0709C628.118 95.8619 629.161 93.2145 631.247 91.1287C633.333 89.0429 635.9 88 638.948 88C641.997 88 644.564 89.0429 646.65 91.1287C648.896 93.2145 650.019 95.8619 650.019 99.0709V161.886C655.154 156.27 661.17 151.216 668.07 146.724C675.129 142.071 684.034 139.744 694.784 139.744C703.93 139.744 711.711 141.91 718.129 146.242C724.547 150.414 729.441 156.11 732.81 163.33C736.179 170.39 737.864 178.252 737.864 186.916V255.266C737.864 258.315 736.741 260.882 734.495 262.968C732.409 265.054 729.842 266.097 726.793 266.097C723.745 266.097 721.178 265.054 719.092 262.968C717.006 260.882 715.963 258.315 715.963 255.266V189.323C715.963 180.177 713.877 173.037 709.706 167.903C705.694 162.608 698.956 159.961 689.489 159.961C680.825 159.961 673.284 162.287 666.866 166.94C660.448 171.593 654.833 176.968 650.019 183.065V255.266C650.019 258.315 648.896 260.882 646.65 262.968C644.564 265.054 641.997 266.097 638.948 266.097Z" fill="#1D93C8"/>
<path d="M539.235 267.3C523.351 267.3 508.991 263.85 496.155 256.951C483.479 249.891 473.451 239.944 466.071 227.108C458.69 214.112 455 198.709 455 180.899C455 162.929 458.69 147.526 466.071 134.69C473.451 121.854 483.479 111.987 496.155 105.088C508.991 98.028 523.351 94.4982 539.235 94.4982C551.108 94.4982 561.377 95.9422 570.041 98.8302C578.705 101.718 586.727 105.248 594.108 109.42C595.712 110.222 596.916 111.345 597.718 112.789C598.681 114.073 599.242 115.838 599.403 118.084C599.563 120.651 598.761 122.897 596.996 124.823C595.231 126.748 592.824 127.711 589.776 127.711C588.171 127.711 586.727 127.39 585.444 126.748C579.026 123.379 572.447 120.651 565.709 118.565C558.97 116.479 550.867 115.437 541.401 115.437C527.282 115.437 515.408 118.325 505.782 124.101C496.155 129.877 488.935 137.739 484.121 147.686C479.308 157.474 476.901 168.545 476.901 180.899C476.901 193.253 479.308 204.405 484.121 214.352C488.935 224.14 496.155 231.921 505.782 237.697C515.408 243.474 527.282 246.362 541.401 246.362C550.867 246.362 558.97 245.319 565.709 243.233C572.447 241.147 579.026 238.419 585.444 235.05C586.727 234.408 588.171 234.087 589.776 234.087C592.824 234.087 595.231 235.05 596.996 236.975C598.761 238.901 599.563 241.147 599.403 243.714C599.242 245.96 598.681 247.806 597.718 249.25C596.916 250.533 595.712 251.576 594.108 252.378C586.727 256.55 578.705 260.08 570.041 262.968C561.377 265.856 551.108 267.3 539.235 267.3Z" fill="#1D93C8"/>
<g clip-path="url(#clip0_2036_857)">
<rect width="355" height="355" rx="50" fill="#1D93C8"/>
<path d="M4.5 236.903L99.3847 331.787C107.223 339.625 119.94 339.594 127.739 331.717L374 83" stroke="white" stroke-width="65" stroke-linecap="round"/>
</g>
<defs>
<clipPath id="clip0_2036_857">
<rect width="355" height="355" rx="50" fill="white"/>
</clipPath>
</defs>
</svg>
