<svg width="1384" height="355" viewBox="0 0 1384 355" fill="none" xmlns="http://www.w3.org/2000/svg">
<g clip-path="url(#clip0_2033_874)">
<rect width="355" height="355" rx="50" fill="#1D93C8"/>
<path d="M4.5 236.903L99.3847 331.787C107.223 339.625 119.94 339.594 127.739 331.717L374 83" stroke="white" stroke-width="63" stroke-linecap="round"/>
</g>
<path d="M1366.14 281.115C1361.98 281.115 1358.38 279.671 1355.31 276.784C1352.42 273.716 1350.98 270.107 1350.98 265.957V264.333C1350.98 260.182 1352.42 256.664 1355.31 253.777C1358.38 250.709 1361.98 249.175 1366.14 249.175H1368.84C1372.99 249.175 1376.51 250.709 1379.4 253.777C1382.47 256.664 1384 260.182 1384 264.333V265.957C1384 270.107 1382.47 273.716 1379.4 276.784C1376.51 279.671 1372.99 281.115 1368.84 281.115H1366.14Z" fill="#1D93C8"/>
<path d="M1229.32 283.009C1218.49 283.009 1208.03 280.212 1197.92 274.618C1188 269.024 1179.79 260.904 1173.29 250.257C1166.98 239.611 1163.82 226.619 1163.82 211.281C1163.82 195.942 1166.98 182.95 1173.29 172.304C1179.79 161.657 1188 153.537 1197.92 147.943C1208.03 142.349 1218.49 139.552 1229.32 139.552C1238.89 139.552 1247.46 141.357 1255.04 144.966C1262.61 148.575 1269.47 153.627 1275.61 160.123V93.8083C1275.61 90.1993 1276.78 87.2219 1279.13 84.876C1281.65 82.5302 1284.63 81.3573 1288.06 81.3573C1291.49 81.3573 1294.37 82.5302 1296.72 84.876C1299.06 87.2219 1300.24 90.1993 1300.24 93.8083V269.475C1300.24 272.904 1299.06 275.791 1296.72 278.137C1294.37 280.483 1291.49 281.656 1288.06 281.656C1284.63 281.656 1281.65 280.483 1279.13 278.137C1276.78 275.791 1275.61 272.904 1275.61 269.475V262.438C1269.47 268.934 1262.61 273.987 1255.04 277.595C1247.46 281.204 1238.89 283.009 1229.32 283.009ZM1232.84 260.002C1241.68 260.002 1249.71 258.107 1256.93 254.318C1264.15 250.348 1270.37 245.476 1275.61 239.701V182.86C1270.37 177.085 1264.15 172.304 1256.93 168.514C1249.71 164.544 1241.68 162.559 1232.84 162.559C1220.03 162.559 1209.38 166.71 1200.9 175.01C1192.6 183.13 1188.45 195.221 1188.45 211.281C1188.45 227.16 1192.6 239.25 1200.9 247.551C1209.38 255.851 1220.03 260.002 1232.84 260.002Z" fill="#1D93C8"/>
<path d="M1039.27 281.656C1035.84 281.656 1032.96 280.483 1030.61 278.137C1028.26 275.791 1027.09 272.904 1027.09 269.475V93.8083C1027.09 90.3797 1028.26 87.4926 1030.61 85.1467C1032.96 82.6204 1035.84 81.3573 1039.27 81.3573C1042.7 81.3573 1045.59 82.6204 1047.93 85.1467C1050.46 87.4926 1051.72 90.3797 1051.72 93.8083V204.514L1116.14 144.966C1117.23 144.063 1118.4 143.251 1119.66 142.529C1121.11 141.808 1122.64 141.447 1124.26 141.447C1128.96 141.447 1132.11 142.8 1133.74 145.507C1135.36 148.033 1136.17 150.65 1136.17 153.356C1136.17 154.439 1135.9 155.792 1135.36 157.417C1134.82 158.86 1133.56 160.574 1131.57 162.559L1092.59 197.476L1141.59 262.438C1143.39 264.784 1144.29 267.22 1144.29 269.746C1144.29 273.355 1143.12 276.242 1140.77 278.408C1138.43 280.573 1135.45 281.656 1131.84 281.656C1128.05 281.656 1124.71 279.941 1121.83 276.513L1075.27 213.175L1051.72 234.558V269.475C1051.72 272.904 1050.46 275.791 1047.93 278.137C1045.59 280.483 1042.7 281.656 1039.27 281.656Z" fill="#1D93C8"/>
<path d="M946.646 283.009C933.834 283.009 921.924 280.212 910.917 274.618C899.91 268.844 891.068 260.633 884.391 249.987C877.714 239.16 874.376 226.258 874.376 211.281C874.376 196.123 877.714 183.221 884.391 172.574C891.068 161.928 899.91 153.808 910.917 148.214C921.924 142.439 933.834 139.552 946.646 139.552C957.292 139.552 966.134 140.996 973.172 143.883C980.39 146.59 986.254 149.477 990.766 152.544C994.375 154.89 996.179 158.048 996.179 162.018C996.179 164.544 995.187 166.98 993.202 169.326C991.217 171.672 988.781 172.845 985.893 172.845C983.908 172.845 981.924 172.304 979.939 171.221C975.247 168.695 970.646 166.619 966.134 164.995C961.623 163.371 955.849 162.559 948.811 162.559C933.112 162.559 920.842 167.071 912 176.093C903.338 185.115 899.007 196.845 899.007 211.281C899.007 225.717 903.338 237.446 912 246.468C920.842 255.491 933.112 260.002 948.811 260.002C955.849 260.002 961.623 259.19 966.134 257.566C970.646 255.761 975.247 253.686 979.939 251.34C981.924 250.258 983.908 249.716 985.893 249.716C988.781 249.716 991.217 250.889 993.202 253.235C995.187 255.581 996.179 258.017 996.179 260.543C996.179 264.513 994.375 267.671 990.766 270.017C986.254 272.904 980.39 275.791 973.172 278.678C966.134 281.565 957.292 283.009 946.646 283.009Z" fill="#1D93C8"/>
<path d="M728.88 281.656C725.451 281.656 722.564 280.483 720.218 278.137C717.872 275.791 716.699 272.904 716.699 269.475V93.8083C716.699 90.1993 717.872 87.2219 720.218 84.876C722.564 82.5302 725.451 81.3573 728.88 81.3573C732.308 81.3573 735.195 82.5302 737.541 84.876C740.067 87.2219 741.331 90.1993 741.331 93.8083V164.454C747.105 158.138 753.872 152.454 761.631 147.402C769.571 142.169 779.586 139.552 791.676 139.552C801.961 139.552 810.713 141.988 817.931 146.86C825.149 151.552 830.653 157.958 834.442 166.078C838.232 174.018 840.126 182.86 840.126 192.604V269.475C840.126 272.904 838.863 275.791 836.337 278.137C833.991 280.483 831.104 281.656 827.675 281.656C824.247 281.656 821.36 280.483 819.014 278.137C816.668 275.791 815.495 272.904 815.495 269.475V195.311C815.495 185.025 813.149 176.995 808.457 171.221C803.946 165.266 796.367 162.289 785.721 162.289C775.977 162.289 767.496 164.905 760.278 170.138C753.06 175.371 746.744 181.416 741.331 188.273V269.475C741.331 272.904 740.067 275.791 737.541 278.137C735.195 280.483 732.308 281.656 728.88 281.656Z" fill="#1D93C8"/>
<path d="M616.736 283.009C598.871 283.009 582.721 279.13 568.285 271.37C554.03 263.431 542.752 252.243 534.451 237.807C526.15 223.19 522 205.867 522 185.838C522 165.627 526.15 148.304 534.451 133.868C542.752 119.432 554.03 108.335 568.285 100.575C582.721 92.6356 598.871 88.6658 616.736 88.6658C630.089 88.6658 641.638 90.2898 651.382 93.5379C661.126 96.786 670.149 100.756 678.449 105.448C680.254 106.35 681.607 107.613 682.509 109.237C683.592 110.681 684.224 112.665 684.404 115.192C684.584 118.079 683.682 120.605 681.697 122.771C679.712 124.936 677.006 126.019 673.577 126.019C671.773 126.019 670.149 125.658 668.705 124.936C661.487 121.147 654.089 118.079 646.51 115.733C638.931 113.387 629.818 112.214 619.172 112.214C603.292 112.214 589.939 115.462 579.112 121.959C568.285 128.455 560.165 137.297 554.751 148.485C549.338 159.492 546.631 171.943 546.631 185.838C546.631 199.732 549.338 212.273 554.751 223.461C560.165 234.469 568.285 243.22 579.112 249.716C589.939 256.213 603.292 259.461 619.172 259.461C629.818 259.461 638.931 258.288 646.51 255.942C654.089 253.596 661.487 250.528 668.705 246.739C670.149 246.017 671.773 245.656 673.577 245.656C677.006 245.656 679.712 246.739 681.697 248.904C683.682 251.07 684.584 253.596 684.404 256.483C684.224 259.01 683.592 261.085 682.509 262.709C681.607 264.152 680.254 265.325 678.449 266.228C670.149 270.919 661.126 274.889 651.382 278.137C641.638 281.385 630.089 283.009 616.736 283.009Z" fill="#1D93C8"/>
<defs>
<clipPath id="clip0_2033_874">
<rect width="355" height="355" rx="50" fill="white"/>
</clipPath>
</defs>
</svg>
